<svg xmlns="http://www.w3.org/2000/svg" viewBox="0 0 512 512" role="img" aria-label="Baby Feeding Tracker">
  <defs>
    <linearGradient id="night" x1="60" y1="40" x2="452" y2="472" gradientUnits="userSpaceOnUse">
      <stop stop-color="#1d1839"/>
      <stop offset="0.55" stop-color="#2d2358"/>
      <stop offset="1" stop-color="#3b2a6d"/>
    </linearGradient>
    <linearGradient id="sunrise" x1="120" y1="330" x2="400" y2="420" gradientUnits="userSpaceOnUse">
      <stop stop-color="#ff7a63"/>
      <stop offset="0.55" stop-color="#e83e8c"/>
      <stop offset="1" stop-color="#8b5cf6"/>
    </linearGradient>
    <radialGradient id="moonglow" cx="256" cy="210" r="170" gradientUnits="userSpaceOnUse">
      <stop stop-color="#fff3e0" stop-opacity="0.35"/>
      <stop offset="1" stop-color="#fff3e0" stop-opacity="0"/>
    </radialGradient>
  </defs>
  <rect width="512" height="512" rx="116" fill="url(#night)"/>
  <circle cx="256" cy="210" r="170" fill="url(#moonglow)"/>
  <circle cx="96" cy="110" r="7" fill="#fde9b8" opacity="0.9"/>
  <circle cx="418" cy="88" r="5" fill="#ffffff" opacity="0.75"/>
  <circle cx="440" cy="200" r="6" fill="#fde9b8" opacity="0.8"/>
  <circle cx="72" cy="230" r="4" fill="#ffffff" opacity="0.6"/>
  <path d="M394 132l6 16 16 6-16 6-6 16-6-16-16-6 16-6z" fill="#ffe9ad" opacity="0.95"/>
  <circle cx="256" cy="214" r="104" fill="#fff7ea"/>
  <path d="M212 208c6 10 20 10 26 0" fill="none" stroke="#3b2a6d" stroke-width="12" stroke-linecap="round"/>
  <path d="M278 208c6 10 20 10 26 0" fill="none" stroke="#3b2a6d" stroke-width="12" stroke-linecap="round"/>
  <path d="M238 254c10 10 26 10 36 0" fill="none" stroke="#e8639a" stroke-width="12" stroke-linecap="round"/>
  <circle cx="196" cy="238" r="12" fill="#ffd3e4" opacity="0.9"/>
  <circle cx="316" cy="238" r="12" fill="#ffd3e4" opacity="0.9"/>
  <path d="M132 384c30-46 74-72 124-72s94 26 124 72" fill="none" stroke="url(#sunrise)" stroke-width="34" stroke-linecap="round"/>
</svg>
